<?xml version="1.0" encoding="UTF-8"?>
<!DOCTYPE svg PUBLIC "-//W3C//DTD SVG 1.1//EN" "http://www.w3.org/Graphics/SVG/1.1/DTD/svg11.dtd">
<svg xmlns="http://www.w3.org/2000/svg" version="1.1" width="1590px" height="1412px" style="shape-rendering:geometricPrecision; text-rendering:geometricPrecision; image-rendering:optimizeQuality; fill-rule:evenodd; clip-rule:evenodd" xmlns:xlink="http://www.w3.org/1999/xlink">
<g><path style="opacity:1" fill="#ef3e3e" d="M 452.5,-0.5 C 635.5,-0.5 818.5,-0.5 1001.5,-0.5C 1001.5,86.5 1001.5,173.5 1001.5,260.5C 1001.83,452.667 1001.5,644.667 1000.5,836.5C 861.713,643.378 721.379,451.378 579.5,260.5C 580.739,259.788 581.239,258.788 581,257.5C 520.491,177.137 459.991,96.8035 399.5,16.5C 415.968,7.01029 433.635,1.34363 452.5,-0.5 Z"/></g>
<g><path style="opacity:0.999" fill="#dc3636" d="M 1001.5,-0.5 C 1046.5,-0.5 1091.5,-0.5 1136.5,-0.5C 1179.87,4.73188 1213.7,25.3985 1238,61.5C 1350,255.5 1462,449.5 1574,643.5C 1583.42,662.188 1588.59,681.855 1589.5,702.5C 1589.5,704.5 1589.5,706.5 1589.5,708.5C 1588.59,729.145 1583.42,748.812 1574,767.5C 1460.25,964.664 1346.25,1161.66 1232,1358.5C 1220.39,1373.62 1206.22,1385.62 1189.5,1394.5C 1126.94,1313.75 1064.61,1232.75 1002.5,1151.5C 1004.74,1150.53 1007.08,1150.19 1009.5,1150.5C 1072.83,1150.5 1136.17,1150.5 1199.5,1150.5C 1199.5,853.833 1199.5,557.167 1199.5,260.5C 1133.83,260.5 1068.17,260.5 1002.5,260.5C 1002.17,260.5 1001.83,260.5 1001.5,260.5C 1001.5,173.5 1001.5,86.5 1001.5,-0.5 Z"/></g>
<g><path style="opacity:0.999" fill="#fe5151" d="M 399.5,16.5 C 459.991,96.8035 520.491,177.137 581,257.5C 581.239,258.788 580.739,259.788 579.5,260.5C 515.5,260.5 451.5,260.5 387.5,260.5C 387.5,557.167 387.5,853.833 387.5,1150.5C 453.167,1150.5 518.833,1150.5 584.5,1150.5C 584.5,1237.5 584.5,1324.5 584.5,1411.5C 540.5,1411.5 496.5,1411.5 452.5,1411.5C 409.126,1406.26 375.292,1385.6 351,1349.5C 239,1155.5 127,961.5 15,767.5C 5.74108,749.122 0.57441,729.789 -0.5,709.5C -0.5,706.833 -0.5,704.167 -0.5,701.5C 0.57441,681.211 5.74108,661.878 15,643.5C 128.747,446.336 242.747,249.336 357,52.5C 368.611,37.381 382.778,25.381 399.5,16.5 Z"/></g>
<g><path style="opacity:1" fill="#fefefe" d="M 579.5,260.5 C 721.379,451.378 861.713,643.378 1000.5,836.5C 1000.78,837.289 1001.28,837.956 1002,838.5C 1002.5,645.834 1002.67,453.167 1002.5,260.5C 1068.17,260.5 1133.83,260.5 1199.5,260.5C 1199.5,557.167 1199.5,853.833 1199.5,1150.5C 1136.17,1150.5 1072.83,1150.5 1009.5,1150.5C 868.242,957.396 726.742,764.396 585,571.5C 584.5,764.5 584.333,957.5 584.5,1150.5C 518.833,1150.5 453.167,1150.5 387.5,1150.5C 387.5,853.833 387.5,557.167 387.5,260.5C 451.5,260.5 515.5,260.5 579.5,260.5 Z"/></g>
<g><path style="opacity:0.754" fill="#f16f6f" d="M 1001.5,260.5 C 1001.83,260.5 1002.17,260.5 1002.5,260.5C 1002.67,453.167 1002.5,645.834 1002,838.5C 1001.28,837.956 1000.78,837.289 1000.5,836.5C 1001.5,644.667 1001.83,452.667 1001.5,260.5 Z"/></g>
<g><path style="opacity:1" fill="#c82e2e" d="M 1009.5,1150.5 C 1007.08,1150.19 1004.74,1150.53 1002.5,1151.5C 1064.61,1232.75 1126.94,1313.75 1189.5,1394.5C 1173.03,1403.99 1155.36,1409.66 1136.5,1411.5C 952.5,1411.5 768.5,1411.5 584.5,1411.5C 584.5,1324.5 584.5,1237.5 584.5,1150.5C 584.333,957.5 584.5,764.5 585,571.5C 726.742,764.396 868.242,957.396 1009.5,1150.5 Z"/></g>
</svg>
